<svg xmlns="http://www.w3.org/2000/svg" width="1713" height="1536" viewBox="0 0 1713 1536" version="1.1">
	<path d="M 551 0.457 C 550.175 0.656, 546.125 1.366, 542 2.034 C 518.812 5.787, 495.775 17.893, 475.950 36.743 C 402.613 106.474, 388.977 254.363, 444.019 383.045 C 481.862 471.518, 545.407 533.864, 612.312 548.165 C 626.017 551.094, 650.471 551.305, 663 548.601 C 682.180 544.462, 698.590 536.981, 714.138 525.287 C 801.937 459.254, 817.412 285.268, 747.891 145.779 C 730.907 111.701, 713.290 86.520, 689.034 61.649 C 658.121 29.952, 625.569 10.509, 590.694 2.910 C 582.315 1.084, 555.303 -0.585, 551 0.457 M 1123 0.682 C 1115.690 1.437, 1099.405 5.266, 1091.119 8.178 C 1072.897 14.582, 1051.274 27.090, 1033.500 41.509 C 1022.640 50.319, 1001.964 71.324, 992.658 83 C 949.405 137.272, 920.823 210.017, 911.324 290 C 908.964 309.872, 908.968 354.097, 911.331 372.914 C 923.501 469.806, 969.774 533.963, 1038.040 548.596 C 1049.730 551.102, 1074.110 551.131, 1086.464 548.653 C 1164.535 532.996, 1236.115 454.714, 1271.309 346.500 C 1295.541 271.995, 1297.427 190.405, 1276.454 124 C 1250.293 41.169, 1191.151 -6.358, 1123 0.682 M 130 382.695 C 95.415 386.399, 63.900 402.641, 42.318 427.886 C -15.228 495.195, -13.778 617.241, 45.839 724.497 C 93.135 809.584, 166.075 869.544, 242 885.750 C 253.231 888.147, 256.631 888.422, 275.500 888.459 C 298.022 888.503, 304.489 887.640, 321.375 882.337 C 367.009 868.005, 402.345 827.876, 416.332 774.500 C 425.174 740.758, 426.473 699.731, 419.924 661 C 412.695 618.249, 396.944 574.591, 376.270 540 C 324.604 453.553, 244.888 393.534, 168.424 383.511 C 157.975 382.141, 138.944 381.737, 130 382.695 M 1543.684 383.474 C 1466.882 394.480, 1388.086 454.076, 1336.730 540 C 1311.630 581.995, 1294.359 635.868, 1289.924 686.005 C 1288.248 704.949, 1289.220 737.034, 1291.938 752.500 C 1299.299 794.379, 1313.891 825.006, 1337.942 849.058 C 1357.789 868.904, 1379.423 880.506, 1408.125 886.694 C 1414.677 888.107, 1420.962 888.498, 1437 888.489 C 1459.291 888.478, 1466.112 887.567, 1486.291 881.912 C 1579.292 855.848, 1667.788 758.164, 1699.885 646.140 C 1719.479 577.753, 1716.855 511.356, 1692.591 461.639 C 1672.183 419.824, 1640.098 394.118, 1596.777 384.876 C 1584.388 382.233, 1557.332 381.519, 1543.684 383.474 M 825 636.714 C 815.615 637.771, 796.217 642.345, 785.479 646.033 C 742.676 660.732, 702.213 691.034, 657.990 741.505 C 636.418 766.126, 614.749 794.464, 573.500 852 C 522.972 922.481, 501.826 949.028, 472.061 979.355 C 446.561 1005.335, 430.513 1019.165, 378.277 1060.175 C 336.618 1092.880, 323.852 1103.301, 304.738 1120.204 C 253.218 1165.767, 224.091 1209.212, 214.031 1255.500 C 204.342 1300.081, 213.526 1354.748, 239.180 1405.184 C 264.529 1455.022, 301.039 1492.793, 344.997 1514.656 C 376.367 1530.258, 409.216 1536.997, 447.500 1535.683 C 491.294 1534.181, 535.484 1523.988, 611 1497.969 C 673.576 1476.409, 704.110 1466.202, 720 1461.534 C 757.586 1450.492, 791.311 1443.539, 819.825 1440.953 C 836.731 1439.420, 873.173 1440.206, 890 1442.467 C 933.381 1448.294, 967.665 1457.517, 1057.500 1487.530 C 1148.301 1517.865, 1183.092 1527.018, 1227 1532.124 C 1242.689 1533.948, 1277.046 1533.680, 1291.288 1531.623 C 1338.699 1524.774, 1377.447 1505.314, 1411.995 1471 C 1450.531 1432.725, 1475.709 1383.343, 1480.933 1335.789 C 1486.042 1289.292, 1470.186 1239.127, 1435.169 1191 C 1410.247 1156.746, 1381.433 1127.615, 1306.587 1060.999 C 1223.414 986.972, 1204.073 965.119, 1130.015 861.500 C 1065.622 771.404, 1036.804 735.998, 1002 704.219 C 959.732 665.625, 917.640 643.734, 873.687 637.485 C 864.314 636.152, 834.219 635.676, 825 636.714" stroke="none" fill="black" fill-rule="evenodd"/>
</svg>